# xmcd
#
# Track frame offsets:
#       150
#       35568
#       62274
#       98302
#       133797
#       171124
#       190629
#       244891
#
# Disc length: 3583 seconds
#
# Revision: 4
# Processed by: cddbd v1.5.2PL0 Copyright (c) Steve Scherf et al.
# Submitted via: WaveLab 6.10
#
DISCID=5d0dfd08
DTITLE=Double Fantasy - Power Sound Edition
DYEAR=1986
DGENRE=Electronic Music
TTITLE0=Heartbreaker
TTITLE1=Universal Avenue
TTITLE2=Endless Running
TTITLE3=Food For Fantasy
TTITLE4=Lost Control
TTITLE5=Children Of The Universe
TTITLE6=Stranger In Space
TTITLE7=Private Planet
EXTD=
EXTT0=
EXTT1=
EXTT2=
EXTT3=
EXTT4=
EXTT5=
EXTT6=
EXTT7=
PLAYORDER=
